<svg xmlns="http://www.w3.org/2000/svg" viewBox="0 0 48 48" aria-label="Torrent logo" role="img" > <g fill="#76B83F" fill-rule="evenodd"> <path d="M27.368 47.76c8.894-1.25 16.222-7.372 19.198-15.578-.235.087-.522.19-.864.292-4 1.18-6.808-.932-7.374-1.297-.567-.362-1.173-.96-1.287-.93-.366 2.266-2.436 5.413-7.16 6.84-2.588.784-5.374.802-7.361-.312l.655 1.644c.263.655.703 1.73.976 2.383 0 0 1.717 4.088 3.217 6.959" /> <path d="m5.446 14.188 7.081-1.32c.645-.117 1.36.249 1.587.813l4.865 12.142c.662 1.266.797 1.546 1.228 2.086 0 0 3.36 4.796 8.48 3.624 3.454-.789 5.066-3.381 5.175-5.225.114-.592-.063-1.337-.37-2.032l-5.828-13.175c-.234-.53.043-1.052.612-1.16l5.905-1.1c.542-.098 1.177.239 1.413.752l6.455 13.819c.26.553.787 1.424 1.175 1.932 0 0 1.343 1.928 3.494 1.562.531 0 1.137-.288 1.137-.288.095-.86.145-1.732.145-2.619C48 10.744 37.254 0 23.997 0 10.744 0 0 10.744 0 24 0 34.635 6.92 43.652 16.505 46.8a49.535 49.535 0 0 1-1.839-4.242L4.596 15.497c-.222-.594.166-1.181.85-1.31" /> </g> </svg>