<svg viewBox="0 0 300 160" xmlns="http://www.w3.org/2000/svg" preserveAspectRatio="xMidYMid" aria-label="Android logo" role="img" > <path fill="#3dda84" d="m200.2 111.7c-5.3 0-9.6-4.3-9.6-9.6s4.3-9.6 9.6-9.6 9.6 4.3 9.6 9.6-4.3 9.6-9.6 9.6m-105.7 0c-5.3 0-9.6-4.3-9.6-9.6s4.3-9.6 9.6-9.6 9.6 4.3 9.6 9.6-4.3 9.6-9.6 9.6m109.1-57.6l19.2-33.1c1.1-1.9 0.4-4.3-1.5-5.4s-4.3-0.4-5.4 1.5l-19.4 33.5c-14.8-6.8-31.4-10.6-49.1-10.6s-34.4 3.8-49.2 10.5l-19.4-33.5c-1.1-1.9-3.5-2.6-5.4-1.5s-2.6 3.5-1.5 5.4l19.1 33.1c-32.8 17.9-55.3 51.1-58.6 90.4h229.7c-3.2-39.2-25.6-72.4-58.5-90.3" ></path> </svg>