<svg xmlns="http://www.w3.org/2000/svg" xml:space="preserve" viewBox="35.188 31.512 450 340" aria-label="Nvidia logo" role="img" > <path fill="var(--vtl-background-svg)" d="M433.465 322.716c0 3.771-2.769 6.302-6.047 6.302v-.022c-3.371.023-6.089-2.508-6.089-6.278 0-3.77 2.718-6.294 6.089-6.294 3.279 0 6.047 2.523 6.047 6.292zm2.453 0c0-5.175-4.02-8.179-8.5-8.179-4.511 0-8.531 3.005-8.531 8.18 0 5.172 4.021 8.188 8.531 8.188 4.481 0 8.5-3.016 8.5-8.188m-9.91.692h.91l2.109 3.703h2.316l-2.336-3.86c1.207-.086 2.2-.66 2.2-2.286 0-2.019-1.392-2.668-3.75-2.668h-3.411v8.813h1.961v-3.703m.001-1.492v-2.122h1.364c.742 0 1.753.06 1.753.965 0 .985-.523 1.157-1.398 1.157h-1.719M378.676 277.635l10.598 28.993H367.75Zm-11.35-11.29-24.423 61.88h17.246l3.863-10.934h28.903l3.656 10.934h18.722l-24.605-61.888zm-49.033 61.903h17.497v-61.921l-17.5-.004zm-121.467-61.925L182.228 315.4l-13.984-49.074-18.879-.004 19.972 61.926h25.207l20.133-61.926zm70.725 13.484h7.52c10.91 0 17.966 4.898 17.966 17.609 0 12.714-7.056 17.613-17.966 17.613h-7.52zm-17.35-13.484v61.926h28.366c15.113 0 20.048-2.512 25.384-8.148 3.769-3.957 6.207-12.641 6.207-22.134 0-8.707-2.063-16.468-5.66-21.304-6.481-8.65-15.817-10.34-29.75-10.34zm-165.743-.086v62.012h17.645v-47.086l13.672.004c4.527 0 7.754 1.128 9.934 3.457 2.765 2.945 3.894 7.699 3.894 16.395v27.23h17.098v-34.262c0-24.453-15.586-27.75-30.836-27.75zm137.583.086.007 61.926h17.489v-61.926z" /> <path fill="#77b900" d="M131.481 143.022s22.504-33.203 67.437-36.638V94.337c-49.769 3.998-92.867 46.15-92.867 46.15s24.41 70.565 92.867 77.026v-12.805c-50.237-6.32-67.437-61.687-67.437-61.687zm67.437 36.223v11.726c-37.968-6.77-48.507-46.237-48.507-46.237s18.23-20.195 48.507-23.47v12.867c-.023 0-.039-.007-.058-.007-15.891-1.907-28.305 12.938-28.305 12.938s6.958 24.99 28.363 32.182m0-107.125v22.218c1.461-.112 2.922-.207 4.391-.257 56.582-1.907 93.449 46.406 93.449 46.406s-42.343 51.488-86.457 51.488c-4.043 0-7.828-.375-11.383-1.005v13.74c3.04.385 6.192.612 9.481.612 41.051 0 70.738-20.965 99.484-45.778 4.766 3.817 24.278 13.103 28.289 17.168-27.332 22.883-91.031 41.33-127.144 41.33-3.481 0-6.824-.211-10.11-.528v19.306H354.95v-164.7Zm0 49.144v-14.879c1.446-.1 2.903-.179 4.391-.226 40.688-1.278 67.382 34.965 67.382 34.965s-28.832 40.043-59.746 40.043c-4.449 0-8.438-.715-12.028-1.922V134.13c15.84 1.914 19.028 8.911 28.551 24.786l21.18-17.859s-15.461-20.277-41.524-20.277c-2.833 0-5.544.198-8.206.483" /> </svg>