<svg xmlns="http://www.w3.org/2000/svg" fill="none" viewBox="0 -50 173 118">
  <path fill="var(--vtl-background-svg)" fill-rule="evenodd"
    d="M98.147 30.653H82.54V11.7h15.606v5.12H89.9v2.19h7.753v4.185h-7.753v2.338h8.246v5.12Zm17.377 0H99.919V11.7h15.605v5.12h-8.245v2.19h7.753v4.185h-7.753v2.338h8.245v5.12Zm56.638 0c-1.063-2.898-2.55-5.99-4.551-9.457 2.34-.686 3.739-2.161 3.739-4.426 0-3.446-3.175-5.07-8.196-5.07h-10.339v18.953h7.385v-7.84c1.64 2.763 2.849 5.37 3.643 7.84h8.319ZM160.2 20.167V16.82h2.56c1.083 0 1.698.591 1.698 1.674s-.615 1.674-1.698 1.674h-2.56Zm-9.157 10.486h-15.605V11.7h15.605v5.12h-8.246v2.19h7.754v4.185h-7.754v2.338h8.246v5.12ZM117.297 16.82h7.619c-3.161 2.586-5.763 5.516-7.767 8.713v5.12h16.763v-5.12h-8.379c1.92-2.793 4.603-5.575 8.379-8.713V11.7h-16.615v5.12ZM61.865 11.7h9.501c5.883 0 10.043 3.914 10.043 9.476 0 5.563-4.16 9.477-10.043 9.477h-9.5V11.7Zm7.385 13.833h1.723c1.846 0 2.83-1.23 2.83-4.357 0-3.126-.984-4.356-2.83-4.356H69.25v8.713Z"
    clip-rule="evenodd" />
  <path fill="#A238FF" fill-rule="evenodd"
    d="M41.096 7.323c.444-2.574 1.095-4.192 1.817-4.196h.002c1.346.005 2.437 5.618 2.437 12.549 0 6.93-1.093 12.548-2.44 12.548-.553 0-1.063-.954-1.473-2.552-.649 5.851-1.995 9.874-3.553 9.874-1.205 0-2.287-2.416-3.014-6.227-.496 7.247-1.744 12.389-3.203 12.389-.916 0-1.75-2.038-2.369-5.355C28.558 43.2 26.84 48 24.838 48s-3.722-4.797-4.462-11.647c-.614 3.317-1.448 5.355-2.369 5.355-1.458 0-2.704-5.142-3.203-12.39-.726 3.812-1.805 6.228-3.014 6.228-1.556 0-2.904-4.021-3.552-9.874-.408 1.603-.92 2.552-1.473 2.552-1.348 0-2.44-5.618-2.44-12.548S5.417 3.127 6.765 3.127c.723 0 1.37 1.624 1.819 4.196C9.303 2.885 10.47 0 11.79 0c1.568 0 2.926 4.08 3.568 10.004.629-4.312 1.583-7.06 2.651-7.06 1.497 0 2.77 5.406 3.241 12.947.887-3.867 2.17-6.292 3.591-6.292 1.421 0 2.704 2.427 3.59 6.292.473-7.541 1.744-12.948 3.241-12.948 1.067 0 2.019 2.75 2.65 7.06C34.965 4.08 36.323 0 37.89 0c1.316 0 2.488 2.886 3.206 7.323ZM.837 14.442c0-3.098.62-5.61 1.384-5.61.765 0 1.384 2.512 1.384 5.61 0 3.098-.62 5.61-1.384 5.61-.765 0-1.384-2.512-1.384-5.61Zm45.231 0c0-3.098.62-5.61 1.384-5.61.765 0 1.385 2.512 1.385 5.61 0 3.098-.62 5.61-1.385 5.61-.764 0-1.384-2.512-1.384-5.61Z"
    clip-rule="evenodd" />
</svg>
