<svg viewBox="0 0 77.5 77.5" xmlns="http://www.w3.org/2000/svg" xml:space="preserve" version="1.1">
  <path d="m39.04444,1.03333l-1.1,0c-10.1,0.4 -21.5,6.9 -23.8,17.2c-0.1,0.4 -0.6,0.4 -0.7,0c-0.5,-2.5 -0.4,-5.2 0.3,-7.5c-2.1,1.9 -4,4.1 -5.7,6.5c-0.8,1.3 -1.5,2.7 -2,4.2c-1.4,4.4 -0.9,9.7 2.2,13.3c2.9,3.4 7.5,4.6 11.2,6.9c3.7,2.2 6.9,5.2 8.4,9.4c1.6,4.4 1.3,9.4 -0.4,13.7c-0.1,0.4 -0.7,0.3 -0.7,-0.2c0.4,-6.3 -2.8,-12.2 -8.7,-15c-3.1,-1.4 -6.6,-2 -9.7,-3.5c-2.8,-1.3 -6.4,-3.9 -6.9,-7.3c0,20.6 16.8,37.4 37.6,37.4c20.7,0 37.6,-16.8 37.6,-37.6s-16.9,-37.5 -37.6,-37.5m27.4,58.4c-2.8,3.6 -6.3,6.7 -10.2,9c0,0 0,-0.1 0.1,-0.1c-2.6,1.5 -5.4,2.8 -8.4,3.6c2.3,-1.9 9.8,-6.8 9.8,-20.3c0,-10 -6.3,-16.7 -13.4,-20c-8.1,-3.8 -16.8,-5.8 -16.8,-16c0,-5.4 4.3,-11.2 11,-11.3c0.4,-0.1 0.9,-0.1 1.3,-0.1l0.4,0c8.9,0.3 17.3,4 23.5,10.5c6.3,6.5 9.7,15 9.7,24l0,0.2c0,4.2 -0.8,8.3 -2.2,12.1l0,0.1c-0.1,0.3 -0.3,0.7 -0.4,1c-0.1,0.2 -0.2,0.4 -0.2,0.5c0,0.1 -0.1,0.1 -0.1,0.2c-1.1,2.2 -2.5,4.5 -4.1,6.6" fill="#c33139"/>
 </svg>
